# xmcd
#
# Track frame offsets:
#	150
#	11354
#	19594
#	29142
#	36722
#	46876
#	61443
#	69430
#	82346
#	104613
#	122532
#	140743
#	153112
#	166385
#	179484
#	191214
#	204410
#	216921
#	235788
#	252967
#
# Disc length: 3630 seconds
#
# Revision: 1
# Processed by: cddbd v1.5.2PL0 Copyright (c) Steve Scherf et al.
# Submitted via: audiograbber 1.83.01
#
DISCID=270e2c14
DTITLE=Tomas Linka - 40 odstinu country_CD1
DYEAR=2015
DGENRE=
TTITLE0=Jesse James
TTITLE1=Hardy
TTITLE2=Ja v posledni dobe
TTITLE3=Kamarad
TTITLE4=Tak ja du dal
TTITLE5=Jarni sprava
TTITLE6=Tanecek
TTITLE7=Cim jezdi laska
TTITLE8=Svita ve tvych tvarich
TTITLE9=Lojza a Liza
TTITLE10=Pani ma se ma
TTITLE11=Kovbojove a klauni
TTITLE12=Jitro vchazi oknem
TTITLE13=Je mi lito
TTITLE14=Pulnocni kovboj
TTITLE15=Ten kram je muj dzip
TTITLE16=Chci byt vodou na tvuj mlyn
TTITLE17=Navraty
TTITLE18=Bidnej, star
TTITLE19=Tisic mili nikam
EXTD=
EXTT0=
EXTT1=
EXTT2=
EXTT3=
EXTT4=
EXTT5=
EXTT6=
EXTT7=
EXTT8=
EXTT9=
EXTT10=
EXTT11=
EXTT12=
EXTT13=
EXTT14=
EXTT15=
EXTT16=
EXTT17=
EXTT18=
EXTT19=
PLAYORDER=
